<svg width="16" height="16" viewBox="0 0 16 16" fill="none" xmlns="http://www.w3.org/2000/svg">
<g clip-path="url(#clip0_310_845)">
<path d="M3.02734 10.6396C3.338 10.6396 3.58984 10.3878 3.58984 10.0771C3.58984 9.76649 3.338 9.51465 3.02734 9.51465C2.71668 9.51465 2.46484 9.76649 2.46484 10.0771C2.46484 10.3878 2.71668 10.6396 3.02734 10.6396Z" fill="#656565"/>
<path d="M5.70996 10.6396C6.02062 10.6396 6.27246 10.3878 6.27246 10.0771C6.27246 9.76649 6.02062 9.51465 5.70996 9.51465C5.3993 9.51465 5.14746 9.76649 5.14746 10.0771C5.14746 10.3878 5.3993 10.6396 5.70996 10.6396Z" fill="#656565"/>
<path d="M3.38576 11.9143C3.56101 12.2356 3.91526 12.5223 4.36876 12.5223C4.82226 12.5223 5.17626 12.2358 5.35151 11.9143C5.39876 11.8278 5.33626 11.7346 5.26651 11.7883C4.68826 12.2386 4.04626 12.2356 3.47026 11.7883C3.40076 11.7348 3.33826 11.8281 3.38576 11.9143Z" fill="#656565"/>
<path d="M13.579 12.7373C14.164 12.2945 14.6545 11.6913 14.7788 10.9853C15.128 10.9313 15.5 10.7083 15.5 10.0045C15.5 9.38475 15.2715 9.19925 15.0782 9.15325C15.058 6.611 14.4375 5.527 11.6545 5.50075C8.8485 5.474 8.10925 6.60475 8.0825 9.185C8.05311 9.19992 8.02544 9.21803 8 9.239V9.1675C8 6.0685 5.9695 6.1265 5.9695 6.1265C5.9695 6.1265 5.81675 5.5 4.25025 5.5C1.8245 5.5 0.5 7.0825 0.5 9.1675V15.5H15.5V13.6938C15.5 13.2173 14.678 12.8988 13.579 12.7373ZM1.47325 9.17775C2.97825 9.17775 5.43025 7.22025 5.43025 7.22025C5.43025 7.22025 6.357 8.94825 7.2515 9.17775C7.2515 9.17775 7.68525 9.25725 7.68525 9.9435C7.68525 10.7682 7.107 10.9108 7.107 10.9108C7.09975 12.1555 5.4005 13.4067 4.3695 13.4067C3.33725 13.4067 1.60975 12.1553 1.60975 10.9108C1.60975 10.9108 1.0525 10.7682 1.0525 9.9435C1.0525 9.29 1.47325 9.17775 1.47325 9.17775ZM7.875 15.2552L0.74975 15.25V13.6938C0.74975 13.4403 1.397 13.117 2.6275 12.9593C3.19975 13.385 3.85975 13.6565 4.3695 13.6565C4.8625 13.6565 5.4995 13.396 6.05925 12.985C7.168 13.1505 7.87525 13.635 7.87525 13.875L7.875 15.2552ZM7.9925 10.0045C7.9925 9.5965 8.09175 9.3895 8.28825 9.3895C8.30125 9.3895 8.31433 9.39025 8.3275 9.39175C8.3535 9.54125 8.384 9.649 8.42025 9.72025C8.50975 9.8945 8.68 9.98975 8.69925 10L8.90875 10.1128L8.87525 9.8715C8.84933 9.64457 8.84072 9.41599 8.8495 9.18775C8.9325 7.93125 9.01225 7.76375 9.28525 7.76375C9.40925 7.76375 9.5795 7.7985 9.79525 7.842C10.2155 7.92725 10.7908 8.044 11.6245 8.044C12.4583 8.044 13.0337 7.92725 13.4537 7.842C13.6695 7.79825 13.8397 7.76375 13.964 7.76375C14.2372 7.76375 14.317 7.93175 14.399 9.1875C14.4135 9.58175 14.3742 9.86875 14.3737 9.8715L14.34 10.1132L14.5503 10C14.5695 9.98975 14.7393 9.8945 14.829 9.72025C14.8658 9.6485 14.896 9.543 14.9225 9.39175C15.1423 9.36775 15.2575 9.57 15.2575 10.0045C15.2575 10.481 15.069 10.717 14.6645 10.7472L14.5655 10.7545L14.5527 10.8555C14.3655 12.3403 12.403 13.2817 11.6245 13.2817C10.846 13.2817 8.8835 12.3403 8.69675 10.8555L8.684 10.7545L8.585 10.7472C8.181 10.7167 7.9925 10.481 7.9925 10.0045ZM8 10.7565C8.134 10.893 8.30475 10.9595 8.47125 10.9853C8.5985 11.7093 9.1105 12.3252 9.715 12.771C8.72175 12.941 8 13.2475 8 13.6938V10.7565ZM15.2498 15.25L8.125 15.2502V13.8752C8.125 13.4455 8.9185 13.13 10.015 12.976C10.5865 13.3298 11.1965 13.5317 11.6248 13.5317C12.0635 13.5317 12.6925 13.3188 13.2758 12.949C14.4967 13.0938 15.2498 13.401 15.2498 13.6938V15.25Z" fill="#656565"/>
<path d="M10.2524 10.6396C10.5631 10.6396 10.8149 10.3878 10.8149 10.0771C10.8149 9.76649 10.5631 9.51465 10.2524 9.51465C9.94178 9.51465 9.68994 9.76649 9.68994 10.0771C9.68994 10.3878 9.94178 10.6396 10.2524 10.6396Z" fill="#656565"/>
<path d="M13.002 10.6396C13.3126 10.6396 13.5645 10.3878 13.5645 10.0771C13.5645 9.76649 13.3126 9.51465 13.002 9.51465C12.6913 9.51465 12.4395 9.76649 12.4395 10.0771C12.4395 10.3878 12.6913 10.6396 13.002 10.6396Z" fill="#656565"/>
<path d="M10.6433 11.9138C10.8185 12.2351 11.173 12.5218 11.6268 12.5218C12.0805 12.5218 12.4348 12.2353 12.6103 11.9138C12.6575 11.8273 12.5945 11.7341 12.5253 11.7878C11.9468 12.2381 11.304 12.2351 10.728 11.7878C10.6585 11.7343 10.596 11.8276 10.6433 11.9138ZM7.99926 6.49984C8.29951 6.22934 12.4935 4.04534 11.634 1.76984C10.8353 -0.34491 8.23951 0.60384 7.99926 1.66009C7.66926 0.53459 5.13851 -0.30466 4.36601 1.77084C3.50601 4.08384 7.69951 6.16009 7.99926 6.49984Z" fill="#656565"/>
</g>
<defs>
<clipPath id="clip0_310_845">
<rect width="16" height="16" fill="white"/>
</clipPath>
</defs>
</svg>
