<svg width="36" height="35" viewBox="0 0 36 35" fill="none" xmlns="http://www.w3.org/2000/svg">
<g clip-path="url(#clip0_310_808)">
<path d="M32.2188 17.5C32.2188 13.729 30.7207 10.1124 28.0542 7.44583C25.3876 4.77929 21.771 3.28125 18 3.28125C14.229 3.28125 10.6124 4.77929 7.94583 7.44583C5.27929 10.1124 3.78125 13.729 3.78125 17.5C3.78125 21.271 5.27929 24.8876 7.94583 27.5542C10.6124 30.2207 14.229 31.7188 18 31.7188C21.771 31.7188 25.3876 30.2207 28.0542 27.5542C30.7207 24.8876 32.2188 21.271 32.2188 17.5ZM0.5 17.5C0.5 12.8587 2.34374 8.40752 5.62563 5.12563C8.90752 1.84374 13.3587 0 18 0C22.6413 0 27.0925 1.84374 30.3744 5.12563C33.6563 8.40752 35.5 12.8587 35.5 17.5C35.5 22.1413 33.6563 26.5925 30.3744 29.8744C27.0925 33.1563 22.6413 35 18 35C13.3587 35 8.90752 33.1563 5.62563 29.8744C2.34374 26.5925 0.5 22.1413 0.5 17.5ZM12.5654 21.8955C13.9053 20.6514 15.7988 19.6875 18 19.6875C20.2012 19.6875 22.0947 20.6514 23.4346 21.8955C24.7334 23.1123 25.6562 24.7461 25.6562 26.25C25.6562 26.6191 25.4717 26.9609 25.1641 27.166C24.8564 27.3711 24.4668 27.3984 24.125 27.2549L22.9492 26.7422C21.3906 26.0586 19.7021 25.71 18 25.71C16.2979 25.71 14.6094 26.0654 13.0508 26.7422L11.875 27.2549C11.54 27.4053 11.1436 27.3711 10.8359 27.166C10.5283 26.9609 10.3438 26.6191 10.3438 26.25C10.3438 24.7461 11.2666 23.1123 12.5654 21.8955ZM9.62598 10.0283L15.7715 13.3027C16.5029 13.6924 16.5029 14.7451 15.7715 15.1348L9.62598 18.4092C9.08594 18.6963 8.42969 18.3066 8.42969 17.6914C8.42969 17.5 8.49805 17.3154 8.62109 17.1719L11.082 14.2188L8.62109 11.2656C8.49805 11.1221 8.42969 10.9375 8.42969 10.7461C8.42969 10.1309 9.08594 9.74121 9.62598 10.0283ZM27.5703 10.7393C27.5703 10.9307 27.502 11.1152 27.3789 11.2588L24.918 14.2119L27.3789 17.165C27.502 17.3086 27.5703 17.4932 27.5703 17.6846C27.5703 18.2998 26.9141 18.6895 26.374 18.4023L20.2285 15.1279C19.4971 14.7383 19.4971 13.6855 20.2285 13.2959L26.374 10.0215C26.9141 9.73438 27.5703 10.124 27.5703 10.7393Z" fill="#FF63B8"/>
</g>
<defs>
<clipPath id="clip0_310_808">
<rect width="35" height="35" fill="white" transform="translate(0.5)"/>
</clipPath>
</defs>
</svg>
