<svg width="36" height="35" viewBox="0 0 36 35" fill="none" xmlns="http://www.w3.org/2000/svg">
<path d="M17.9998 32.0837C26.054 32.0837 32.5832 25.5545 32.5832 17.5003C32.5832 9.44617 26.054 2.91699 17.9998 2.91699C9.94568 2.91699 3.4165 9.44617 3.4165 17.5003C3.4165 25.5545 9.94568 32.0837 17.9998 32.0837Z" stroke="#FF63B8" stroke-width="3" stroke-linecap="round"/>
<path d="M11.9932 23.6893C12.7121 23.0666 13.6586 22.6174 14.6794 22.3229C15.7602 22.0204 16.8778 21.8697 18 21.8751C19.1463 21.8751 20.2896 22.0254 21.3207 22.3229C22.3415 22.6174 23.2894 23.0666 24.0069 23.6893" stroke="#FF63B8" stroke-width="3" stroke-linecap="round"/>
<path d="M13.6247 16.4066C14.6314 16.4066 15.4476 15.5904 15.4476 14.5837C15.4476 13.5769 14.6314 12.7607 13.6247 12.7607C12.6179 12.7607 11.8018 13.5769 11.8018 14.5837C11.8018 15.5904 12.6179 16.4066 13.6247 16.4066Z" fill="#FF63B8" stroke="#FF63B8" stroke-width="3" stroke-linecap="round"/>
<path d="M22.3747 16.4066C23.3814 16.4066 24.1976 15.5904 24.1976 14.5837C24.1976 13.5769 23.3814 12.7607 22.3747 12.7607C21.3679 12.7607 20.5518 13.5769 20.5518 14.5837C20.5518 15.5904 21.3679 16.4066 22.3747 16.4066Z" fill="#FF63B8" stroke="#FF63B8" stroke-width="3" stroke-linecap="round"/>
</svg>
