<svg width="36" height="35" viewBox="0 0 36 35" fill="none" xmlns="http://www.w3.org/2000/svg">
<path d="M18.0002 0.700195C13.5446 0.700195 9.27141 2.47019 6.1208 5.6208C2.97019 8.77141 1.2002 13.0446 1.2002 17.5002C1.20031 19.7064 1.63497 21.891 2.47935 23.9292C3.32374 25.9674 4.56131 27.8194 6.12142 29.3793C7.68153 30.9393 9.53361 32.1767 11.5719 33.0208C13.6102 33.865 15.7949 34.2994 18.0011 34.2993C20.2073 34.2992 22.3919 33.8646 24.4301 33.0202C26.4683 32.1758 28.3203 30.9382 29.8802 29.3781C31.4402 27.818 32.6775 25.9659 33.5217 23.9276C34.3659 21.8893 34.8003 19.7047 34.8002 17.4984C34.8002 8.2217 27.2769 0.700195 18.0002 0.700195ZM18.0002 30.7985C16.2409 30.8186 14.4951 30.4895 12.8638 29.8303C11.2326 29.171 9.74842 28.1946 8.49721 26.9576C7.246 25.7207 6.25264 24.2478 5.57468 22.6242C4.89673 21.0007 4.54764 19.2587 4.54764 17.4993C4.54764 15.7399 4.89673 13.998 5.57468 12.3744C6.25264 10.7509 7.246 9.27796 8.49721 8.04102C9.74842 6.80408 11.2326 5.82768 12.8638 5.16839C14.4951 4.5091 16.2409 4.18001 18.0002 4.2002C19.7595 4.18001 21.5053 4.5091 23.1365 5.16839C24.7678 5.82768 26.252 6.80408 27.5032 8.04102C28.7544 9.27796 29.7477 10.7509 30.4257 12.3744C31.1037 13.998 31.4528 15.7399 31.4528 17.4993C31.4528 19.2587 31.1037 21.0007 30.4257 22.6242C29.7477 24.2478 28.7544 25.7207 27.5032 26.9576C26.252 28.1946 24.7678 29.171 23.1365 29.8303C21.5053 30.4895 19.7595 30.8186 18.0002 30.7985ZM13.6269 17.0627C15.0759 17.0627 16.2502 15.6924 16.2502 14.0002C16.2502 12.3079 15.0742 10.9377 13.6252 10.9377C12.1762 10.9377 11.0002 12.3079 11.0002 14.0002C11.0002 15.6924 12.1762 17.0627 13.6269 17.0627ZM22.3752 17.0627C23.8259 17.0627 25.0002 15.6924 25.0002 14.0002C25.0002 12.3079 23.8242 10.9377 22.3752 10.9377C20.9262 10.9377 19.7502 12.3097 19.7502 14.0002C19.7502 15.6907 20.9262 17.0627 22.3752 17.0627ZM25.5969 19.8382C25.2881 19.6824 24.9305 19.6537 24.6007 19.7584C24.271 19.8631 23.9954 20.0928 23.8329 20.3982C23.7734 20.5137 22.3122 23.1859 18.0019 23.1859C13.7127 23.1859 12.2427 20.5382 12.1692 20.3999C12.0119 20.0892 11.7375 19.8537 11.4065 19.7452C11.0756 19.6368 10.7151 19.6642 10.4043 19.8216C10.0936 19.9789 9.85808 20.2532 9.74961 20.5842C9.64115 20.9152 9.66861 21.2757 9.82594 21.5864C9.91345 21.7597 12.0099 25.8109 18.0019 25.8109C23.9957 25.8109 26.0887 21.7579 26.1744 21.5847C26.3286 21.2764 26.3544 20.9195 26.2462 20.5922C26.138 20.2649 25.9045 19.9938 25.5969 19.8382Z" fill="#FF63B8"/>
</svg>
