<svg width="36" height="35" viewBox="0 0 36 35" fill="none" xmlns="http://www.w3.org/2000/svg">
<path d="M17.9998 32.0837C26.054 32.0837 32.5832 25.5545 32.5832 17.5003C32.5832 9.44617 26.054 2.91699 17.9998 2.91699C9.94568 2.91699 3.4165 9.44617 3.4165 17.5003C3.4165 25.5545 9.94568 32.0837 17.9998 32.0837Z" stroke="#FF63B8" stroke-width="3" stroke-linecap="round" stroke-linejoin="round"/>
<path d="M12.1663 24.7916C12.8455 23.886 13.7263 23.151 14.7387 22.6447C15.7512 22.1385 16.8677 21.8749 17.9997 21.8749C20.3855 21.8749 22.503 23.0212 23.833 24.7916M10.708 13.1395C10.708 13.1395 12.7643 12.9543 13.9105 13.8657M13.9105 13.8657L13.527 15.0834C13.3753 15.5632 13.7705 16.0416 14.3188 16.0416C14.8963 16.0416 15.277 15.5209 14.9795 15.0718C14.6873 14.6171 14.3268 14.2103 13.9105 13.8657ZM25.2913 13.1409C25.2913 13.1409 23.2351 12.9543 22.0888 13.8657M22.0888 13.8657L22.4724 15.0834C22.624 15.5632 22.2288 16.0416 21.6805 16.0416C21.103 16.0416 20.7224 15.5209 21.0199 15.0718C21.312 14.6171 21.6726 14.2103 22.0888 13.8657Z" stroke="#FF63B8" stroke-width="3" stroke-linecap="round" stroke-linejoin="round"/>
</svg>
