<svg width="24" height="24" viewBox="0 0 24 24" fill="none" xmlns="http://www.w3.org/2000/svg">
<path d="M18.0712 3.75V2H1.93018V18.143H3.68018" stroke="#656565" stroke-width="1.5"/>
<path d="M5.9292 5.85742H22.0702V22.0004H5.9302L5.9292 5.85742Z" stroke="#656565" stroke-width="1.5"/>
<path d="M13.3682 11.1067L14.1882 11.9267L15.0082 11.1067C15.2216 10.8827 15.4776 10.7035 15.7613 10.5799C16.0449 10.4563 16.3505 10.3907 16.6599 10.3869C16.9693 10.3831 17.2763 10.4413 17.5629 10.5579C17.8495 10.6746 18.1099 10.8474 18.3287 11.0662C18.5474 11.285 18.7203 11.5454 18.8369 11.832C18.9536 12.1186 19.0118 12.4256 19.008 12.735C19.0042 13.0444 18.9386 13.3499 18.815 13.6336C18.6913 13.9173 18.5122 14.1733 18.2882 14.3867L14.1882 18.4867L10.0882 14.3867C9.8641 14.1733 9.68498 13.9173 9.56136 13.6336C9.43774 13.3499 9.37211 13.0444 9.36834 12.735C9.36456 12.4256 9.42272 12.1186 9.53939 11.832C9.65606 11.5454 9.82888 11.285 10.0477 11.0662C10.2665 10.8474 10.5268 10.6746 10.8134 10.5579C11.1 10.4413 11.407 10.3831 11.7165 10.3869C12.0259 10.3907 12.3314 10.4563 12.615 10.5799C12.8987 10.7035 13.1548 10.8827 13.3682 11.1067Z" stroke="#656565" stroke-width="1.5"/>
</svg>
