<svg width="21" height="22" viewBox="0 0 21 22" fill="none" xmlns="http://www.w3.org/2000/svg">
<path d="M19.74 11.2188C19.74 10.5362 19.6788 9.88 19.565 9.25H10.5V12.9731H15.68C15.4569 14.1762 14.7787 15.1956 13.7594 15.8781V18.2931H16.87C18.69 16.6175 19.74 14.15 19.74 11.2188Z" fill="#4285F4"/>
<path d="M10.5002 20.6254C13.0989 20.6254 15.2777 19.7635 16.8702 18.2935L13.7596 15.8785C12.8977 16.456 11.7952 16.7972 10.5002 16.7972C7.9933 16.7972 5.87143 15.1041 5.11455 12.8291H1.89893V15.3229C3.48268 18.4685 6.73768 20.6254 10.5002 20.6254Z" fill="#34A853"/>
<path d="M5.11438 12.829C4.92188 12.2515 4.8125 11.6346 4.8125 11.0002C4.8125 10.3659 4.92188 9.74898 5.11438 9.17148V6.67773H1.89875C1.225 8.01899 0.874406 9.49927 0.875001 11.0002C0.875001 12.5534 1.24688 14.0234 1.89875 15.3227L5.11438 12.829Z" fill="#FBBC05"/>
<path d="M10.5002 5.20312C11.9133 5.20312 13.1821 5.68875 14.1796 6.6425L16.9402 3.88188C15.2733 2.32875 13.0946 1.375 10.5002 1.375C6.73768 1.375 3.48268 3.53187 1.89893 6.6775L5.11455 9.17125C5.87143 6.89625 7.9933 5.20312 10.5002 5.20312Z" fill="#EA4335"/>
</svg>
