<svg width="24" height="24" viewBox="0 0 24 24" fill="none" xmlns="http://www.w3.org/2000/svg">
<path fill-rule="evenodd" clip-rule="evenodd" d="M4 3C4 2.73478 3.89464 2.48043 3.70711 2.29289C3.51957 2.10536 3.26522 2 3 2C2.73478 2 2.48043 2.10536 2.29289 2.29289C2.10536 2.48043 2 2.73478 2 3V20.2C2 20.6774 2.18964 21.1352 2.52721 21.4728C2.86477 21.8104 3.32261 22 3.8 22H21C21.2652 22 21.5196 21.8946 21.7071 21.7071C21.8946 21.5196 22 21.2652 22 21C22 20.7348 21.8946 20.4804 21.7071 20.2929C21.5196 20.1054 21.2652 20 21 20H4V3ZM21.707 7.707C21.8892 7.5184 21.99 7.2658 21.9877 7.0036C21.9854 6.7414 21.8802 6.49059 21.6948 6.30518C21.5094 6.11977 21.2586 6.0146 20.9964 6.01233C20.7342 6.01005 20.4816 6.11084 20.293 6.293L14 12.586L10.707 9.293C10.5195 9.10553 10.2652 9.00021 10 9.00021C9.73484 9.00021 9.48053 9.10553 9.293 9.293L5.293 13.293C5.19749 13.3852 5.12131 13.4956 5.0689 13.6176C5.01649 13.7396 4.9889 13.8708 4.98775 14.0036C4.9866 14.1364 5.0119 14.2681 5.06218 14.391C5.11246 14.5139 5.18671 14.6255 5.2806 14.7194C5.3745 14.8133 5.48615 14.8875 5.60905 14.9378C5.73194 14.9881 5.86362 15.0134 5.9964 15.0123C6.12918 15.0111 6.2604 14.9835 6.3824 14.9311C6.50441 14.8787 6.61475 14.8025 6.707 14.707L10 11.414L13.293 14.707C13.4805 14.8945 13.7348 14.9998 14 14.9998C14.2652 14.9998 14.5195 14.8945 14.707 14.707L21.707 7.707Z" fill="#656565"/>
</svg>
