<svg width="24" height="24" viewBox="0 0 24 24" fill="none" xmlns="http://www.w3.org/2000/svg">
<path d="M12 7.5C14.4853 7.5 16.5 9.51472 16.5 12C16.5 14.4853 14.4853 16.5 12 16.5C9.51472 16.5 7.5 14.4853 7.5 12C7.5 9.51472 9.51472 7.5 12 7.5Z" fill="#7C7C7C"/>
<path fill-rule="evenodd" clip-rule="evenodd" d="M12.5342 4.50391C18.5955 4.68586 23 10.5234 23 12L22.9863 12.1533C22.714 13.8689 18.2603 19.5 12.2441 19.5L11.9541 19.4961C5.87815 19.314 1 13.4766 1 12C1 10.5 6.03415 4.5002 12.2441 4.5L12.5342 4.50391ZM12.2441 6.5C9.77217 6.5001 7.39964 7.70959 5.57031 9.22656C4.66968 9.97346 3.96109 10.7475 3.49512 11.3809C3.31183 11.63 3.17949 11.8389 3.09082 12C3.17949 12.1611 3.31183 12.37 3.49512 12.6191C3.96109 13.2525 4.66968 14.0265 5.57031 14.7734C7.39964 16.2904 9.77217 17.4999 12.2441 17.5C14.6994 17.5 16.937 16.3044 18.6279 14.8125C19.4625 14.0761 20.1115 13.3123 20.5361 12.6846C20.7263 12.4034 20.8549 12.1702 20.9355 12C20.8549 11.8298 20.7263 11.5966 20.5361 11.3154C20.1115 10.6877 19.4625 9.92391 18.6279 9.1875C16.937 7.69562 14.6994 6.5 12.2441 6.5Z" fill="#7C7C7C"/>
</svg>
